<svg aria-hidden="true" style="width:0;height:0;position:absolute;overflow:hidden" xmlns="http://www.w3.org/2000/svg"><defs><symbol id="icon-arrow-right" viewBox="0 0 16 16" fill="none" xmlns="http://www.w3.org/2000/svg"><path d="M3.333 8h9.334M8 12.667 12.667 8 8 3.333" stroke="#000" stroke-width="1.333" stroke-linecap="round" stroke-linejoin="round"/></symbol><symbol id="icon-horse-icon" viewBox="0 0 36 32"><path d="M5.249 7.57c.487.177 1.207-.221 2.312-1.549.418.154.746.496.888 1.23.273 1.398-.16 2.295-.76 3.525-.653 1.343-1.338 2.617-1.045 4.37-1.198.148-2.301.11-3.302-.133-.569-.049-1.039-.014-1.387.122-.354.136-.583.377-.667.74-.203 1.358-.734 2.223-1.28 3.064-.029.691-.009 1.358.258 1.921l.154.395.07.885c.093 1.184.514 2.173 1.471.569.099-.612.006-1.224-.276-1.837l-.441-.2c.026-.862.113-1.694.395-2.428.218-.717.615-1.23 1.216-1.523l.615-.07-.36.923c-.084.975-.209 1.863-.548 2.327-.192.685-.104 1.108.255 1.282.279.113.534.624.769 1.625.25.569.563.882.94.94.395-.099.464-.879.308-2.121-.302-.368-.604-.516-.908-.548.055-.659.029-1.3-.087-1.918.055-.769.281-1.488.975-2.086.267.725 1.419 1.042 2.875 1.216l.957-.992c2.539 2.408 5.492 3.789 8.35 2.739.209.148.29.731.363 1.744.583.839 1.137 2.376 1.689 3.476.406.847.322 1.546-.07 2.156-.882.374-1.726.946-2.249 1.561-.85.038-1.497.078-2.031.354-.366.287-.586.647-.633 1.094l.444.171-.496.685c.177.595.757.754 1.892.708l.659-1.134 1.265-.36c.464-.923 1.207-1.816 2.788-2.617 1.056.058 1.616-.508 1.558-1.848-.534-1.213-.728-2.376-.241-3.438 2.24-1.378 3.624-3.488 3.456-5.852 3.572-.934-1.851 8.237 8.388 6.221.592-.116 1.207-.331 1.863-.575-1.323-.226-5.13-1.169-5.8-2.771-1.715-2.431-3.511-4.207-5.423-5.049-1.297-1.648-3.586-2.283-6.401-2.379-.841-.075-1.578-.299-2.156-.751.583-4.123-3.36-6.148-.479-4.877-1.227-2.989-5.043-3.963-2.35-3.653C11.648 1.639 9.901.94 7.421 1.381 6.893.612 5.631-1.033 6.017.937L5.384.371l-.035 1.985c-.751.575-1.163 2.487-1.747 3.728-.496.493-.688 1.085-.531 2.002.778 1.001 2.002.754 2.176-.511z"/></symbol></defs></svg>